<svg width="32" height="32" viewBox="0 0 32 32" fill="none" xmlns="http://www.w3.org/2000/svg">
<circle cx="16" cy="16" r="15" fill="white" stroke="#739010" stroke-width="2"/>
<path d="M19.8402 15.04H16.9602V12.16C16.9602 11.6298 16.5304 11.2 16.0002 11.2C15.47 11.2 15.0402 11.6298 15.0402 12.16V15.04H12.1602C11.63 15.04 11.2002 15.4698 11.2002 16C11.2002 16.5301 11.63 16.96 12.1602 16.96H15.0402V19.8399C15.0402 20.3701 15.47 20.7999 16.0002 20.7999C16.5304 20.7999 16.9602 20.3701 16.9602 19.8399V16.96H19.8402C20.3704 16.96 20.8002 16.5301 20.8002 16C20.8002 15.4698 20.3704 15.04 19.8402 15.04Z" fill="#739010"/>
</svg>
