<svg width="16" height="16" viewBox="0 0 16 16" fill="none" xmlns="http://www.w3.org/2000/svg">
<path d="M14.722 7.59684C14.1727 6.43965 13.519 5.4959 12.761 4.76559L11.966 5.56059C12.6143 6.18012 13.179 6.99059 13.6673 7.99996C12.3673 10.6906 10.522 11.9687 8.00009 11.9687C7.24311 11.9687 6.54587 11.8521 5.90837 11.619L5.04697 12.4804C5.93238 12.8893 6.91676 13.0937 8.00009 13.0937C11.0032 13.0937 13.2438 11.5296 14.722 8.40152C14.7814 8.27572 14.8122 8.13831 14.8122 7.99918C14.8122 7.86005 14.7814 7.72264 14.722 7.59684V7.59684ZM13.7287 2.58684L13.0626 1.91996C13.051 1.90834 13.0372 1.89912 13.022 1.89283C13.0068 1.88654 12.9906 1.8833 12.9742 1.8833C12.9577 1.8833 12.9415 1.88654 12.9263 1.89283C12.9111 1.89912 12.8973 1.90834 12.8857 1.91996L11.1768 3.62809C10.2346 3.14684 9.17572 2.90621 8.00009 2.90621C4.99697 2.90621 2.75634 4.47027 1.27822 7.5984C1.2188 7.72421 1.18799 7.86161 1.18799 8.00074C1.18799 8.13987 1.2188 8.27728 1.27822 8.40309C1.86874 9.64684 2.57967 10.6438 3.41103 11.3939L1.75759 13.0468C1.73417 13.0703 1.72101 13.1021 1.72101 13.1352C1.72101 13.1683 1.73417 13.2001 1.75759 13.2236L2.42462 13.8906C2.44806 13.914 2.47984 13.9272 2.51298 13.9272C2.54612 13.9272 2.5779 13.914 2.60134 13.8906L13.7287 2.76371C13.7403 2.7521 13.7495 2.73832 13.7558 2.72314C13.7621 2.70797 13.7653 2.6917 13.7653 2.67527C13.7653 2.65885 13.7621 2.64258 13.7558 2.62741C13.7495 2.61223 13.7403 2.59845 13.7287 2.58684ZM2.3329 7.99996C3.63447 5.30934 5.47978 4.03121 8.00009 4.03121C8.85228 4.03121 9.62712 4.17746 10.3301 4.47481L9.23165 5.57324C8.71145 5.29569 8.1158 5.19268 7.5326 5.27941C6.94939 5.36614 6.4095 5.63802 5.99258 6.05495C5.57565 6.47187 5.30377 7.01176 5.21704 7.59497C5.1303 8.17818 5.23331 8.77382 5.51087 9.29402L4.20743 10.5975C3.48603 9.96074 2.86415 9.09809 2.3329 7.99996ZM6.18759 7.99996C6.18786 7.72444 6.25313 7.45286 6.37808 7.2073C6.50303 6.96174 6.68414 6.74911 6.9067 6.58669C7.12927 6.42428 7.387 6.31665 7.65898 6.27256C7.93095 6.22847 8.20949 6.24915 8.47197 6.33293L6.27056 8.53434C6.21538 8.36159 6.18739 8.18131 6.18759 7.99996V7.99996Z" fill="#AAAAAA"/>
<path d="M7.93762 9.75C7.88355 9.75 7.83027 9.7475 7.77746 9.74265L6.95215 10.568C7.44854 10.7581 7.98937 10.8003 8.50926 10.6896C9.02915 10.5789 9.50583 10.3199 9.8817 9.94407C10.2576 9.56821 10.5165 9.09152 10.6272 8.57164C10.7379 8.05175 10.6957 7.51092 10.5056 7.01453L9.68027 7.83984C9.68512 7.89265 9.68762 7.94593 9.68762 8C9.68774 8.22984 9.64256 8.45746 9.55466 8.66984C9.46676 8.88221 9.33786 9.07518 9.17533 9.23771C9.0128 9.40023 8.81983 9.52913 8.60746 9.61704C8.39508 9.70494 8.16747 9.75012 7.93762 9.75V9.75Z" fill="#AAAAAA"/>
</svg>
