<svg width="50" height="50" viewBox="0 0 50 50" fill="none" xmlns="http://www.w3.org/2000/svg">
<path fill-rule="evenodd" clip-rule="evenodd" d="M0 25C0 11.4475 11.4475 0 25 0C38.5525 0 50 11.4475 50 25C50 32.975 46.02 40.195 40 44.81V45H39.745C35.575 48.1125 30.4675 50 25 50C19.5325 50 14.425 48.1125 10.255 45H10V44.81C3.98 40.195 0 32.9725 0 25ZM17.8087 38.09C16.4788 39.1598 15.5534 40.651 15.185 42.3175C18.105 44.01 21.46 45 25 45C28.54 45 31.895 44.01 34.815 42.3175C34.4462 40.6512 33.5206 39.1603 32.1909 38.0905C30.8612 37.0207 29.2066 36.4359 27.5 36.4325H22.5C20.7932 36.4355 19.1385 37.0201 17.8087 38.09ZM34.4193 33.5292C36.4693 34.8935 38.0714 36.8322 39.025 39.1025C42.6925 35.455 45 30.44 45 25C45 14.1575 35.8425 5 25 5C14.1575 5 5 14.1575 5 25C5 30.44 7.3075 35.455 10.975 39.1025C11.9286 36.8322 13.5307 34.8935 15.5807 33.5292C17.6307 32.1649 20.0375 31.4356 22.5 31.4325H27.5C29.9625 31.4356 32.3693 32.1649 34.4193 33.5292ZM15 20C15 14.3 19.3 10 25 10C30.7 10 35 14.3 35 20C35 25.7 30.7 30 25 30C19.3 30 15 25.7 15 20ZM20 20C20 22.945 22.055 25 25 25C27.945 25 30 22.945 30 20C30 17.055 27.945 15 25 15C22.055 15 20 17.055 20 20Z" fill="#739010"/>
</svg>
